HIERARCHY
ROOT Hips
{
	OFFSET 0.000000 0.000000 0.000000
	CHANNELS 6 Xposition Yposition Zposition Xrotation Yrotation Zrotation
	JOINT LeftUpLeg_virtual
	{
		OFFSET 0.000000 0.000000 0.000000
		CHANNELS 3 Xrotation Yrotation Zrotation
		JOINT LeftUpLeg
		{
			OFFSET 13.026900 -6.336304 -1.092800
			CHANNELS 3 Xrotation Yrotation Zrotation
			JOINT LeftLeg
			{
				OFFSET 0.524474 -46.096886 9.782700
				CHANNELS 3 Xrotation Yrotation Zrotation
				JOINT LeftFoot
				{
					OFFSET -0.524474 -53.427422 -12.948200
					CHANNELS 3 Xrotation Yrotation Zrotation
					JOINT LeftToeBase
					{
						OFFSET 0.192200 -14.009700 16.364100
						CHANNELS 3 Xrotation Yrotation Zrotation
						JOINT LeftToe_End
						{
							OFFSET -1.784700 -0.561700 9.474800
							CHANNELS 3 Xrotation Yrotation Zrotation
							End Site
							{
								OFFSET 0 0 0
							}
						}
					}
				}
			}
		}
	}
	JOINT RightUpLeg_virtual
	{
		OFFSET 0.000000 0.000000 0.000000
		CHANNELS 3 Xrotation Yrotation Zrotation
		JOINT RightUpLeg
		{
			OFFSET -12.883000 -6.336304 -1.092800
			CHANNELS 3 Xrotation Yrotation Zrotation
			JOINT RightLeg
			{
				OFFSET -0.524587 -46.096825 9.782800
				CHANNELS 3 Xrotation Yrotation Zrotation
				JOINT RightFoot
				{
					OFFSET 0.524587 -53.427383 -12.948300
					CHANNELS 3 Xrotation Yrotation Zrotation
					JOINT RightToeBase
					{
						OFFSET -0.192200 -14.009700 16.364100
						CHANNELS 3 Xrotation Yrotation Zrotation
						JOINT RightToe_End
						{
							OFFSET 1.784700 -0.561700 9.474800
							CHANNELS 3 Xrotation Yrotation Zrotation
							End Site
							{
								OFFSET 0 0 0
							}
						}
					}
				}
			}
		}
	}
	JOINT Spine_virtual
	{
		OFFSET 0.000000 0.000000 0.000000
		CHANNELS 3 Xrotation Yrotation Zrotation
		JOINT Spine
		{
			OFFSET 0.072000 7.257294 -0.789700
			CHANNELS 3 Xrotation Yrotation Zrotation
			JOINT Spine1
			{
				OFFSET 0.000000 12.508769 -0.658067
				CHANNELS 3 Xrotation Yrotation Zrotation
				JOINT Spine1_split
				{
					OFFSET 0.000000 12.508769 -0.658067
					CHANNELS 3 Xrotation Yrotation Zrotation
					JOINT Spine2
					{
						OFFSET 0.000000 12.508769 -0.658067
						CHANNELS 3 Xrotation Yrotation Zrotation
						JOINT Neck_virtual
						{
							OFFSET 0.000000 0.000000 0.000000
							CHANNELS 3 Xrotation Yrotation Zrotation
							JOINT Neck
							{
								OFFSET 0.000000 14.033295 7.520400
								CHANNELS 3 Xrotation Yrotation Zrotation
								JOINT Head
								{
									OFFSET 0.000000 8.198502 5.703100
									CHANNELS 3 Xrotation Yrotation Zrotation
									JOINT HeadTop_End
									{
										OFFSET 0.000000 17.760803 13.332701
										CHANNELS 3 Xrotation Yrotation Zrotation
										End Site
										{
											OFFSET 0 0 0
										}
									}
								}
							}
						}
						JOINT LeftShoulder_virtual
						{
							OFFSET 0.000000 0.000000 0.000000
							CHANNELS 3 Xrotation Yrotation Zrotation
							JOINT LeftShoulder
							{
								OFFSET 6.292450 5.785301 -0.669000
								CHANNELS 3 Xrotation Yrotation Zrotation
								JOINT LeftShoulder_split
								{
									OFFSET 6.292450 5.785301 -0.669000
									CHANNELS 3 Xrotation Yrotation Zrotation
									JOINT LeftArm
									{
										OFFSET 13.907140 -6.093903 1.965100
										CHANNELS 3 Xrotation Yrotation Zrotation
										JOINT LeftForeArm
										{
											OFFSET 34.140198 0.000000 0.000000
											CHANNELS 3 Xrotation Yrotation Zrotation
											JOINT LeftHand
											{
												OFFSET 40.960209 0.000000 0.000000
												CHANNELS 3 Xrotation Yrotation Zrotation
												End Site
												{
													OFFSET 0 0 0
												}
											}
										}
									}
								}
							}
						}
						JOINT RightShoulder_virtual
						{
							OFFSET 0.000000 0.000000 0.000000
							CHANNELS 3 Xrotation Yrotation Zrotation
							JOINT RightShoulder
							{
								OFFSET -6.292450 5.785301 -0.669000
								CHANNELS 3 Xrotation Yrotation Zrotation
								JOINT RightShoulder_split
								{
									OFFSET -6.292450 5.785301 -0.669000
									CHANNELS 3 Xrotation Yrotation Zrotation
									JOINT RightArm
									{
										OFFSET -13.907140 -6.093903 1.965100
										CHANNELS 3 Xrotation Yrotation Zrotation
										JOINT RightForeArm
										{
											OFFSET -34.140198 0.000000 0.000000
											CHANNELS 3 Xrotation Yrotation Zrotation
											JOINT RightHand
											{
												OFFSET -40.960209 0.000000 0.000000
												CHANNELS 3 Xrotation Yrotation Zrotation
												End Site
												{
													OFFSET 0 0 0
												}
											}
										}
									}
								}
							}
						}
					}
				}
			}
		}
	}
}
MOTION
Frames: 5
Frame Time: 0.03333333
-0.146565 118.290321 -0.067394 0.000000 0.000000 0.000000 0.564288 -7.186284 -0.921242 -14.473634 20.090202 14.172008 14.055397 9.385158 2.690953 -0.792476 3.626678 -13.074193 1.358518 0.358279 -0.950280 0.000000 0.000000 0.000000 1.092907 -6.083416 -0.964304 -16.041845 -21.525162 -4.372571 13.990944 8.367658 -4.086033 -1.462028 2.335049 1.935923 -0.909754 -0.513945 0.219823 0.000000 0.000000 0.000000 0.530707 -8.505658 -1.376694 -0.469719 -0.626788 1.900263 -0.754383 -1.106469 1.008719 1.289738 1.459166 -0.387887 0.000000 0.000000 0.000000 -1.125117 -0.527690 0.902893 -5.339898 0.487166 1.212969 -1.174665 8.071286 0.434082 0.000000 0.000000 0.000000 -1.356788 -0.213980 0.586742 -0.561648 9.805003 -2.811055 -3.525777 -0.109447 -0.516707 42.117197 -65.770637 -27.784579 -0.497099 -27.903220 2.058556 0.000000 0.000000 0.000000 -0.227416 -0.313927 0.451292 3.964290 2.843208 3.649723 0.806051 2.241093 -1.111914 -2.149913 38.326261 65.860680 1.227368 25.370820 1.459396 0.000000 0.000000 0.000000 
-0.113962 118.324806 0.079021 0.000000 0.000000 0.000000 0.570753 -7.357606 -0.858666 -14.471579 20.148966 14.086389 14.011178 9.375841 2.705209 -0.940419 3.585031 -13.106932 1.430215 0.335315 -0.924605 0.000000 0.000000 0.000000 1.187196 -6.222105 -0.896842 -16.023195 -21.498997 -4.352578 14.037867 8.329788 -4.099937 -1.422633 2.240180 1.632475 -0.974604 -0.530127 0.287996 0.000000 0.000000 0.000000 0.573916 -8.513594 -1.395361 -0.541710 -0.675997 1.909094 -0.720281 -1.116825 1.009585 1.312259 1.371471 -0.348509 0.000000 0.000000 0.000000 -1.135259 -0.526560 0.930066 -5.471881 0.615850 1.095716 -1.224781 8.295173 0.468472 0.000000 0.000000 0.000000 -1.276187 -0.220229 0.594704 -0.542303 9.806708 -2.899709 -3.789207 -0.009935 -0.323290 42.362513 -65.781128 -27.629724 -0.379054 -28.105976 2.071608 0.000000 0.000000 0.000000 -0.202480 -0.292599 0.486772 3.940302 2.979433 3.221052 1.045028 2.717201 -1.321494 -2.716163 38.281069 66.283147 1.082632 25.276783 1.372530 0.000000 0.000000 0.000000 
-0.002388 118.341766 0.206188 0.000000 0.000000 0.000000 0.635869 -7.661737 -0.700273 -14.393177 20.287199 13.908780 14.032047 9.394846 2.749796 -1.128945 3.572495 -13.054044 1.492074 0.311690 -0.921121 0.000000 0.000000 0.000000 1.248950 -6.404551 -0.745958 -16.159997 -21.421959 -4.507732 14.246605 8.307272 -4.128382 -1.400134 2.195577 1.343037 -1.096689 -0.531703 0.332851 0.000000 0.000000 0.000000 0.615047 -8.671321 -1.318117 -0.609872 -0.750554 1.875722 -0.658396 -1.147933 1.015898 1.250781 1.113161 -0.393090 0.000000 0.000000 0.000000 -1.062350 -0.538962 0.949163 -5.680479 0.763193 0.822573 -1.202872 8.542047 0.385978 0.000000 0.000000 0.000000 -1.128591 -0.260526 0.604176 -0.529487 9.852227 -2.901433 -3.875860 0.047587 -0.228689 42.046709 -65.983568 -28.023844 -0.336234 -28.377524 1.972991 0.000000 0.000000 0.000000 -0.149995 -0.296809 0.538731 3.901466 3.114259 2.578329 0.898614 3.165666 -1.455755 -3.383206 39.101689 66.832486 0.914257 24.076659 1.190387 0.000000 0.000000 0.000000 
0.176863 118.319290 0.300022 0.000000 0.000000 0.000000 0.732984 -8.006343 -0.457231 -14.295055 20.501272 13.661241 14.114031 9.440933 2.819006 -1.332110 3.591474 -12.868934 1.543603 0.287951 -0.941293 0.000000 0.000000 0.000000 1.309668 -6.574740 -0.517543 -16.487747 -21.318064 -4.855763 14.562392 8.340462 -4.149952 -1.341054 2.256033 1.216251 -1.238978 -0.514194 0.346183 0.000000 0.000000 0.000000 0.631077 -8.917217 -1.147433 -0.648755 -0.810439 1.811875 -0.567242 -1.176589 1.011907 1.103267 0.759947 -0.443145 0.000000 0.000000 0.000000 -0.940611 -0.548370 0.936684 -5.950997 0.877431 0.488837 -1.132740 8.768719 0.200989 0.000000 0.000000 0.000000 -0.933568 -0.310857 0.595355 -0.528718 9.884682 -2.804860 -3.853499 0.098360 -0.166906 41.180635 -66.377049 -28.832155 -0.347478 -28.680692 1.812992 0.000000 0.000000 0.000000 -0.053097 -0.311404 0.579109 3.865338 3.240774 1.945679 0.604453 3.372497 -1.404644 -4.101620 40.448264 67.321111 0.741059 22.483057 0.958179 0.000000 0.000000 0.000000 
0.395253 118.266502 0.342129 0.000000 0.000000 0.000000 0.836945 -8.314007 -0.157318 -14.216614 20.773979 13.378889 14.242310 9.471059 2.896119 -1.532261 3.624214 -12.545024 1.584260 0.263488 -0.980883 0.000000 0.000000 0.000000 1.381179 -6.740706 -0.232619 -16.895214 -21.188097 -5.309548 14.848550 8.423338 -4.158260 -1.280801 2.397556 1.255285 -1.393579 -0.485069 0.323562 0.000000 0.000000 0.000000 0.616198 -9.183895 -0.918884 -0.654733 -0.795924 1.739555 -0.446951 -1.165401 0.969777 0.889913 0.530130 -0.526900 0.000000 0.000000 0.000000 -0.787770 -0.523724 0.867752 -6.280750 0.925603 0.203309 -1.079379 8.882773 -0.026581 0.000000 0.000000 0.000000 -0.737973 -0.320528 0.552925 -0.546110 9.871794 -2.621802 -3.761212 0.133366 -0.231059 39.826970 -66.976774 -29.873185 -0.360638 -28.899849 1.663174 0.000000 0.000000 0.000000 0.099969 -0.300703 0.572473 3.847679 3.337274 1.572843 0.297380 3.362086 -1.300362 -4.995431 41.950390 67.624187 0.575170 21.152932 0.776028 0.000000 0.000000 0.000000 
